<?xml version="1.0" encoding="utf-8"?>
<!-- Generator: Adobe Illustrator 24.0.2, SVG Export Plug-In . SVG Version: 6.00 Build 0)  -->
<svg version="1.1" id="Layer_1" xmlns="http://www.w3.org/2000/svg" xmlns:xlink="http://www.w3.org/1999/xlink" x="0px" y="0px"
	 viewBox="0 0 1200 650" style="enable-background:new 0 0 1200 650;" xml:space="preserve">
<style type="text/css">
	.st0{fill:url(#SVGID_1_);}
	.st1{fill:#FFFFFF;}
	.st2{fill:url(#SVGID_2_);}
	.st3{fill:url(#SVGID_3_);}
	.st4{fill:url(#SVGID_4_);}
	.st5{fill:#FD743F;}
	.st6{fill:#FDAB8B;}
	.st7{fill:#3FFCDD;}
	.st8{fill:#1AB097;}
	.st9{fill:#00E1FC;}
	.st10{fill:#0F33D1;}
	.st11{fill:url(#SVGID_5_);}
	.st12{fill:url(#SVGID_6_);}
	.st13{fill:url(#SVGID_7_);}
</style>
<linearGradient id="SVGID_1_" gradientUnits="userSpaceOnUse" x1="172.5166" y1="337.3881" x2="392.7986" y2="337.3881">
	<stop  offset="0" style="stop-color:#00E1FC"/>
	<stop  offset="1" style="stop-color:#0F33D1"/>
</linearGradient>
<polygon class="st0" points="391.78,199.81 172.52,141.78 392.8,532.99 "/>
<linearGradient id="SVGID_2_" gradientUnits="userSpaceOnUse" x1="209.1848" y1="525.7187" x2="209.1848" y2="117.0068">
	<stop  offset="0" style="stop-color:#00E1FC"/>
	<stop  offset="1" style="stop-color:#0F33D1"/>
</linearGradient>
<path class="st2" d="M364.52,525.72L25,331.09l173.21-100.71L364.52,525.72z M393.37,178.44l-0.19-61.43l-72.54,42.18L393.37,178.44
	z"/>
<g>
	<path class="st1" d="M487.31,237.62v17.92h38.59v19.29h-38.59v20.67h44.1v19.29h-71.67v-96.48h71.67v19.29H487.31z"/>
	<path class="st1" d="M534.16,218.32h27.57l19.98,86.14l19.99-86.14h27.56l-23.43,96.48H557.6L534.16,218.32z"/>
	<path class="st1" d="M666.47,237.62v17.92h38.59v19.29h-38.59v20.67h44.1v19.29H638.9v-96.48h71.67v19.29H666.47z"/>
	<path class="st1" d="M816.69,218.32v96.48h-46.86l-20.67-89.58v89.58h-26.19v-96.48h46.86l20.67,89.58v-89.58H816.69z"/>
	<path class="st1" d="M910.4,238.99h-27.57v75.8h-27.56v-75.8H827.7v-20.67h82.69V238.99z"/>
	<path class="st1" d="M948.98,218.32v96.48h-27.57v-96.48H948.98z"/>
	<path class="st1" d="M1061.99,218.32v96.48h-46.86l-20.67-89.58v89.58h-26.19v-96.48h46.86l20.67,89.58v-89.58H1061.99z"/>
	<path class="st1" d="M1126.76,258.29H1175v8.27c0,35.7-14.47,50.99-48.24,50.99c-35.69,0-50.99-15.3-50.99-50.99
		s15.3-50.99,50.99-50.99c28.12,0,42.17,9.92,46.86,33.08h-26.18c-2.21-8.68-8.41-12.41-20.67-12.41c-15.44,0-22.05,9.1-22.05,30.32
		s6.61,30.32,22.05,30.32s22.05-6.2,22.05-20.67h-22.05V258.29z"/>
	<path class="st1" d="M552.09,408.51c-5.38,25.08-19.43,35.83-46.86,35.83c-35.69,0-50.99-15.3-50.99-50.99s15.3-50.99,50.99-50.99
		c29.22,0,43.28,10.75,46.86,35.83h-27.56c-2.07-10.61-7.86-15.16-19.3-15.16c-15.43,0-22.05,9.1-22.05,30.32
		s6.62,30.32,22.05,30.32c11.44,0,17.23-4.55,19.3-15.16H552.09z"/>
	<path class="st1" d="M632.02,441.59h-66.16v-96.48h27.57v75.8h38.59V441.59z"/>
	<path class="st1" d="M638.91,345.11h27.57v60.64c0,12.54,4.55,17.92,15.16,17.92c10.61,0,15.16-5.38,15.16-17.92v-60.64h27.57
		v60.64c0,27.01-12.82,38.59-42.73,38.59s-42.73-11.58-42.73-38.59V345.11z"/>
	<path class="st1" d="M824.96,415.4c0,18.33-11.58,26.19-38.59,26.19h-44.1v-96.48h42.73c25.08,0,35.83,7.03,35.83,23.43
		c0,15.16-10.75,22.19-35.83,23.43C812.97,393.35,824.96,400.38,824.96,415.4z M769.83,383.7h11.03c7.72,0,11.03-3.31,11.03-11.03
		c0-6.75-3.31-9.65-11.03-9.65h-11.03V383.7z M796.01,412.64c0-8.68-4.13-12.4-13.78-12.4h-12.4v23.43h12.4
		C791.88,423.67,796.01,420.36,796.01,412.64z"/>
</g>
</svg>
